<svg width="32" height="32" viewBox="0 0 32 32" fill="none" xmlns="http://www.w3.org/2000/svg">
  <!-- DNA Helix -->
  <path d="M8 4C8 4 12 8 16 8C20 8 24 4 24 4" stroke="#10b981" stroke-width="2" fill="none"/>
  <path d="M8 12C8 12 12 16 16 16C20 16 24 12 24 12" stroke="#10b981" stroke-width="2" fill="none"/>
  <path d="M8 20C8 20 12 24 16 24C20 24 24 20 24 20" stroke="#10b981" stroke-width="2" fill="none"/>
  <path d="M8 28C8 28 12 32 16 32C20 32 24 28 24 28" stroke="#10b981" stroke-width="2" fill="none"/>
  
  <!-- Connecting lines -->
  <line x1="8" y1="4" x2="8" y2="28" stroke="#059669" stroke-width="2"/>
  <line x1="24" y1="4" x2="24" y2="28" stroke="#059669" stroke-width="2"/>
  
  <!-- Base pairs -->
  <line x1="10" y1="6" x2="22" y2="6" stroke="#0284c7" stroke-width="1"/>
  <line x1="10" y1="14" x2="22" y2="14" stroke="#0284c7" stroke-width="1"/>
  <line x1="10" y1="22" x2="22" y2="22" stroke="#0284c7" stroke-width="1"/>
  
  <!-- Environmental elements -->
  <circle cx="4" cy="16" r="2" fill="#10b981" opacity="0.6"/>
  <circle cx="28" cy="16" r="2" fill="#10b981" opacity="0.6"/>
</svg>