<svg width="40" height="40" viewBox="0 0 40 40" fill="none" xmlns="http://www.w3.org/2000/svg">
  <defs>
    <linearGradient id="logoGradient" x1="0%" y1="0%" x2="100%" y2="100%">
      <stop offset="0%" style="stop-color:#10b981;stop-opacity:1" />
      <stop offset="50%" style="stop-color:#06b6d4;stop-opacity:1" />
      <stop offset="100%" style="stop-color:#3b82f6;stop-opacity:1" />
    </linearGradient>
  </defs>
  
  <!-- DNA Helix -->
  <path d="M8 10 Q20 5 32 10 Q20 15 8 10" stroke="url(#logoGradient)" stroke-width="2" fill="none"/>
  <path d="M8 20 Q20 15 32 20 Q20 25 8 20" stroke="url(#logoGradient)" stroke-width="2" fill="none"/>
  <path d="M8 30 Q20 25 32 30 Q20 35 8 30" stroke="url(#logoGradient)" stroke-width="2" fill="none"/>
  
  <!-- Connecting lines -->
  <line x1="12" y1="10" x2="12" y2="30" stroke="url(#logoGradient)" stroke-width="1.5"/>
  <line x1="20" y1="8" x2="20" y2="32" stroke="url(#logoGradient)" stroke-width="1.5"/>
  <line x1="28" y1="10" x2="28" y2="30" stroke="url(#logoGradient)" stroke-width="1.5"/>
  
  <!-- Data points -->
  <circle cx="12" cy="10" r="2" fill="url(#logoGradient)"/>
  <circle cx="28" cy="10" r="2" fill="url(#logoGradient)"/>
  <circle cx="12" cy="20" r="2" fill="url(#logoGradient)"/>
  <circle cx="28" cy="20" r="2" fill="url(#logoGradient)"/>
  <circle cx="12" cy="30" r="2" fill="url(#logoGradient)"/>
  <circle cx="28" cy="30" r="2" fill="url(#logoGradient)"/>
</svg>